<svg
   xmlns="http://www.w3.org/2000/svg"
   width="24"
   height="24"
   viewBox="0 0 24 24"
   version="1.1">
  <g
     id="g841"
     transform="matrix(0.17869399,0,0,0.17869399,-11.1848,-33.745756)">
    <path
       id="_6MPHG1sevqtgf3L4HujLx"
       d="m 35,65.833 c 0,-8.587 3.535,-16.36 9.219,-21.956 -3.063,-1.406 -6.458,-2.21 -10.052,-2.21 C 20.82,41.667 10,52.487 10,65.833 10,79.18 20.82,90 34.167,90 37.761,90 41.155,89.196 44.219,87.79 38.535,82.194 35,74.421 35,65.833 Z"
       stroke="none"
       fill="#4bd18e"
       transform="matrix(1.0131054,1.0491372,-1.0491372,1.0131054,132.2913,152.95685)"
       style="fill:#aa4646;fill-opacity:1" />
    <path
       id="_UwTGw_7hHC6DiiaZ34aOB"
       d="m 65.833,65 c -8.587,0 -16.36,-3.535 -21.956,-9.222 -1.406,3.066 -2.21,6.461 -2.21,10.055 C 41.667,79.18 52.487,90 65.833,90 79.18,90 90,79.18 90,65.833 90,62.239 89.196,58.845 87.79,55.778 82.194,61.465 74.421,65 65.833,65 Z"
       stroke="none"
       fill="#f09116"
       transform="matrix(1.0131054,1.0491372,-1.0491372,1.0131054,131.73295,152.14345)"
       style="fill:#913737;fill-opacity:1" />
    <path
       id="_fXbuTUJzsYN1P7VrFDvTy"
       d="m 65.833,10 c -3.594,0 -6.988,0.804 -10.055,2.21 5.687,5.596 9.222,13.369 9.222,21.957 0,8.587 -3.535,16.36 -9.222,21.956 3.066,1.406 6.461,2.21 10.055,2.21 C 79.18,58.333 90,47.513 90,34.167 90,20.82 79.18,10 65.833,10 Z"
       stroke="none"
       fill="#8a25b1"
       transform="matrix(1.0131054,1.0491372,-1.0491372,1.0131054,130.80354,152.81489)"
       style="fill:#aa4646;fill-opacity:1" />
    <path
       id="_Gv_eQ6BGYVEs_FudcIAac"
       d="m 34.167,35 c 8.587,0 16.36,3.535 21.956,9.219 1.406,-3.063 2.21,-6.458 2.21,-10.052 C 58.333,20.82 47.513,10 34.167,10 20.82,10 10,20.82 10,34.167 c 0,3.594 0.804,6.988 2.21,10.052 C 17.806,38.535 25.579,35 34.167,35 Z"
       stroke="none"
       fill="#16c0f0"
       transform="matrix(1.0131054,1.0491372,-1.0491372,1.0131054,131.59099,153.63228)"
       style="fill:#913737;fill-opacity:1" />
  </g>
</svg>
