<?xml version="1.0" encoding="UTF-8" standalone="no"?>
<svg
   xmlns:svg="http://www.w3.org/2000/svg"
   xmlns="http://www.w3.org/2000/svg"
   width="24"
   height="24"
   viewBox="0 0 6.3499997 6.3500002"
   version="1.1">
  <rect
     style="opacity:0.998;fill:#ffffff;fill-opacity:0.00869565;stroke:#ffffff;stroke-width:0.318089;stroke-linecap:round;stroke-linejoin:round;stroke-miterlimit:4;stroke-dasharray:none;paint-order:stroke fill markers"
     id="rect943"
     width="6.0319109"
     height="2.5660949"
     x="0.1590443"
     y="1.8919525"
     ry="0.25456449" />
    <g
       aria-label="NSFW"
       id="text873"
       style="font-style:normal;font-weight:normal;font-size:1.77103px;line-height:2.21379px;font-family:sans-serif;letter-spacing:0.0248925px;fill:#ffffff;fill-opacity:1;stroke:none;stroke-width:0.0442759">
      <path
         d="M 1.7877698,3.8045444 H 1.5689853 L 1.0077556,2.9112466 V 3.8045444 H 0.78897118 V 2.5454528 H 1.0077556 L 1.5707149,3.4422097 V 2.5454528 h 0.2170549 z"
         style="font-style:normal;font-variant:normal;font-weight:500;font-stretch:normal;font-family:Roboto;-inkscape-font-specification:'Roboto Medium';text-align:center;text-anchor:middle;stroke-width:0.0442759"
         id="path879" />
      <path
         d="m 2.7293087,3.4802592 q 0,-0.083017 -0.058804,-0.1279846 Q 2.612566,3.307307 2.4603681,3.2614747 2.3081702,3.2156424 2.2182351,3.159433 2.0461477,3.0513379 2.0461477,2.877521 q 0,-0.1521979 0.1236608,-0.2507806 0.1245255,-0.098583 0.3225557,-0.098583 0.1314437,0 0.2343502,0.048427 0.1029065,0.048427 0.1617102,0.1383617 0.058804,0.08907 0.058804,0.1980302 H 2.7293087 q 0,-0.098583 -0.062263,-0.1539274 -0.061398,-0.056209 -0.1764112,-0.056209 -0.1072303,0 -0.1668988,0.045832 -0.058804,0.045832 -0.058804,0.1279846 0,0.069181 0.063992,0.1158779 0.063992,0.045832 0.2110017,0.089935 0.1470093,0.043238 0.2360796,0.099448 0.08907,0.055345 0.1305789,0.1279846 0.041508,0.071775 0.041508,0.1686284 0,0.1573864 -0.1210665,0.2507806 Q 2.7068237,3.82184 2.5001459,3.82184 2.3635137,3.82184 2.2485005,3.771684 2.1343533,3.7206627 2.070361,3.6315923 2.0072335,3.542522 2.0072335,3.4240497 h 0.2187844 q 0,0.1072304 0.07091,0.1660341 0.07091,0.058804 0.2032188,0.058804 0.1141484,0 0.1712226,-0.045832 0.057939,-0.046697 0.057939,-0.1227966 z"
         style="font-style:normal;font-variant:normal;font-weight:500;font-stretch:normal;font-family:Roboto;-inkscape-font-specification:'Roboto Medium';text-align:center;text-anchor:middle;stroke-width:0.0442759"
         id="path881" />
      <path
         d="M 3.8904968,3.2709871 H 3.383747 V 3.8045444 H 3.1649625 V 2.5454528 H 3.9648662 V 2.721864 H 3.383747 v 0.3744414 h 0.5067498 z"
         style="font-style:normal;font-variant:normal;font-weight:500;font-stretch:normal;font-family:Roboto;-inkscape-font-specification:'Roboto Medium';text-align:center;text-anchor:middle;stroke-width:0.0442759"
         id="path883" />
      <path
         d="M 5.1502676,3.4932306 5.343974,2.5454528 H 5.561029 L 5.2704694,3.8045444 H 5.0611973 L 4.8216586,2.8853038 4.5769313,3.8045444 H 4.3667944 L 4.0762348,2.5454528 h 0.217055 L 4.4887257,3.4915011 4.7291292,2.5454528 h 0.1833292 z"
         style="font-style:normal;font-variant:normal;font-weight:500;font-stretch:normal;font-family:Roboto;-inkscape-font-specification:'Roboto Medium';text-align:center;text-anchor:middle;stroke-width:0.0442759"
         id="path885" />
    </g>
</svg>
