<?xml version="1.0" encoding="UTF-8" standalone="no"?>
<svg
   xmlns="http://www.w3.org/2000/svg"
   width="32"
   height="24"
   enable-background="new 0 0 32 24"
   viewBox="0 0 32 24"
   version="1.1"
   fill="#ffffff">
  <g
     id="g4"
     transform="matrix(3.6897043,0,0,3.6897043,0.04735532,0.28518903)">
    <path
       d="m 0.99533642,1.0583331 c -0.256361,0 -0.466122,0.238125 -0.466122,0.5291667 v 3.1749999 c 0,0.2910417 0.209761,0.5291671 0.466122,0.5291671 h 2.92798598 0.800985 2.927987 c 0.25636,0 0.465604,-0.2381254 0.465604,-0.5291671 V 1.5874998 c 0,-0.2910417 -0.209244,-0.5291667 -0.465604,-0.5291667 H 4.7243074 3.9233224 Z M 3.4303294,2.3791826 c 0.07517,0 0.1395,0.010755 0.193787,0.032039 0.05568,0.019865 0.10246,0.045911 0.140043,0.078548 0.03898,0.031218 0.07039,0.066074 0.09405,0.1043863 0.02366,0.038313 0.04106,0.074465 0.05219,0.1085207 l -0.248563,0.1064533 c -0.01392,-0.04257 -0.03993,-0.081182 -0.07751,-0.1152385 -0.03619,-0.034056 -0.08583,-0.050643 -0.149862,-0.050643 -0.06125,0 -0.112078,0.014642 -0.152445,0.044442 -0.04037,0.02838 -0.06098,0.065828 -0.06098,0.1126545 0,0.045408 0.01994,0.084669 0.05891,0.1173057 0.03898,0.031218 0.100608,0.061668 0.185518,0.091467 l 0.09405,0.032039 c 0.05985,0.021286 0.114062,0.046035 0.162781,0.074414 0.05011,0.026961 0.09284,0.059872 0.127641,0.098185 0.03619,0.038313 0.06304,0.08211 0.08113,0.1317749 0.01949,0.048246 0.02945,0.1040937 0.02945,0.1679485 0,0.079464 -0.01604,0.1485268 -0.04806,0.2067057 -0.03062,0.05676 -0.07014,0.1036659 -0.118856,0.1405599 -0.04872,0.036894 -0.104117,0.064235 -0.165364,0.082682 -0.06125,0.018447 -0.120854,0.027905 -0.179317,0.027905 -0.06403,-2e-7 -0.125506,-0.00946 -0.183968,-0.027905 -0.05846,-0.018447 -0.111995,-0.045789 -0.160714,-0.082682 -0.04872,-0.036894 -0.09093,-0.081856 -0.127124,-0.1343588 -0.03619,-0.053922 -0.0649,-0.116119 -0.08578,-0.1870687 l 0.2651,-0.1064535 c 0.01949,0.076626 0.0536,0.1401191 0.102319,0.191203 0.04872,0.049665 0.112894,0.074931 0.192237,0.074931 0.02923,0 0.05727,-0.00376 0.08371,-0.010853 0.02784,-0.00851 0.05199,-0.019918 0.07286,-0.034106 0.02227,-0.015608 0.03967,-0.034657 0.05219,-0.057361 0.01253,-0.022704 0.0186,-0.048749 0.0186,-0.078548 0,-0.02838 -0.0047,-0.054294 -0.01447,-0.076998 -0.0097,-0.022704 -0.02646,-0.043696 -0.05013,-0.063562 -0.02227,-0.019865 -0.05233,-0.039431 -0.08992,-0.057878 -0.03619,-0.018447 -0.08111,-0.037495 -0.135392,-0.057361 l -0.09198,-0.034105 c -0.04037,-0.014191 -0.08123,-0.033239 -0.12299,-0.057361 -0.04037,-0.024123 -0.0777,-0.053278 -0.111104,-0.087333 -0.03341,-0.034056 -0.06093,-0.073448 -0.0832,-0.1188559 -0.02088,-0.046827 -0.03152,-0.099434 -0.03152,-0.1576131 0,-0.059598 0.01132,-0.1147976 0.03359,-0.1658813 0.02366,-0.052503 0.05643,-0.098113 0.09819,-0.1364257 0.04315,-0.039732 0.09398,-0.070183 0.152446,-0.091467 0.05985,-0.022704 0.126055,-0.034107 0.198437,-0.034107 z m -1.948201,0.034107 h 0.327628 l 0.601514,1.021643 h 0.01654 L 2.4112704,3.1408934 V 2.4132892 h 0.279569 V 3.937227 H 2.3942174 L 1.7596304,2.8582231 h -0.01654 l 0.01654,0.2935221 V 3.937227 h -0.277502 z m 2.709912,0 h 0.948262 v 0.2723342 h -0.666109 v 0.3705201 h 0.59893 v 0.2723348 h -0.59893 V 3.937227 h -0.282153 z m 1.048515,0 h 0.298173 l 0.232027,0.8893514 0.03307,0.1643311 h 0.01705 l 0.04392,-0.1643311 0.214974,-0.6852296 h 0.263033 l 0.217041,0.6852296 0.04186,0.1622639 h 0.01654 l 0.03152,-0.1622639 0.217041,-0.8893514 h 0.29869 L 6.7686264,3.937227 H 6.4973254 L 6.2632304,3.2029051 6.2198224,3.0349566 h -0.01705 l -0.04393,0.1679485 -0.233578,0.7343219 h -0.271301 z"
       id="path2" />
  </g>
</svg>
