<?xml version="1.0" encoding="UTF-8" standalone="no"?>
<svg
   xmlns:dc="http://purl.org/dc/elements/1.1/"
   xmlns:cc="http://creativecommons.org/ns#"
   xmlns:rdf="http://www.w3.org/1999/02/22-rdf-syntax-ns#"
   xmlns:svg="http://www.w3.org/2000/svg"
   xmlns="http://www.w3.org/2000/svg"
   xmlns:sodipodi="http://sodipodi.sourceforge.net/DTD/sodipodi-0.dtd"
   xmlns:inkscape="http://www.inkscape.org/namespaces/inkscape"
   enable-background="new 0 0 24 24"
   height="24px"
   viewBox="0 0 24 24"
   width="24px"
   fill="#ffffff"
   version="1.1"
   id="svg8"
   sodipodi:docname="qr_code.svg"
   inkscape:export-filename="/home/nikinik/Dokumente/Programmirung/electron apps/open-browser/app/images/icons/qr_code.png"
   inkscape:export-xdpi="64"
   inkscape:export-ydpi="64"
   inkscape:version="1.0.2 (e86c870879, 2021-01-15, custom)">
  <metadata
     id="metadata14">
    <rdf:RDF>
      <cc:Work
         rdf:about="">
        <dc:format>image/svg+xml</dc:format>
        <dc:type
           rdf:resource="http://purl.org/dc/dcmitype/StillImage" />
      </cc:Work>
    </rdf:RDF>
  </metadata>
  <defs
     id="defs12" />
  <sodipodi:namedview
     pagecolor="#ffffff"
     bordercolor="#666666"
     borderopacity="1"
     objecttolerance="10"
     gridtolerance="10"
     guidetolerance="10"
     inkscape:pageopacity="0"
     inkscape:pageshadow="2"
     inkscape:window-width="1366"
     inkscape:window-height="705"
     id="namedview10"
     showgrid="false"
     inkscape:zoom="14.377838"
     inkscape:cx="7.5794585"
     inkscape:cy="13.120414"
     inkscape:window-x="0"
     inkscape:window-y="0"
     inkscape:window-maximized="1"
     inkscape:current-layer="svg8" />
  <g
     id="g4">
    <rect
       fill="none"
       height="24"
       width="24"
       id="rect2" />
  </g>
  <path
     d="M15,21h-2v-2h2V21z M13,14h-2v5h2V14z M21,12h-2v4h2V12z M19,10h-2v2h2V10z M7,12H5v2h2V12z M5,10H3v2h2V10z M12,5h2V3h-2V5 z M4.5,4.5v3h3v-3H4.5z M8,9H4C3.45,9,3,8.55,3,8V4c0-0.55,0.45-1,1-1h4c0.55,0,1,0.45,1,1v4C9,8.55,8.55,9,8,9z M4.5,16.5v3h3v-3 H4.5z M8,21H4c-0.55,0-1-0.45-1-1v-4c0-0.55,0.45-1,1-1h4c0.55,0,1,0.45,1,1v4C9,20.55,8.55,21,8,21z M16.5,4.5v3h3v-3H16.5z M20,9 h-4c-0.55,0-1-0.45-1-1V4c0-0.55,0.45-1,1-1h4c0.55,0,1,0.45,1,1v4C21,8.55,20.55,9,20,9z M19,19v-3l-4,0v2h2v3h4v-2H19z M17,12 l-4,0v2h4V12z M13,10H7v2h2v2h2v-2h2V10z M14,9V7h-2V5h-2v4L14,9z M6.75,5.25h-1.5v1.5h1.5V5.25z M6.75,17.25h-1.5v1.5h1.5V17.25z M18.75,5.25h-1.5v1.5h1.5V5.25z"
     id="path6" />
</svg>
